<?xml version="1.0" encoding="utf-8"?>
<!-- Generator: Adobe Illustrator 16.0.0, SVG Export Plug-In . SVG Version: 6.00 Build 0)  -->
<!DOCTYPE svg PUBLIC "-//W3C//DTD SVG 1.1//EN" "http://www.w3.org/Graphics/SVG/1.1/DTD/svg11.dtd">
<svg version="1.1" xmlns="http://www.w3.org/2000/svg" xmlns:xlink="http://www.w3.org/1999/xlink" x="0px" y="0px" width="2048px"
	 height="2048px" viewBox="0 0 2048 2048" enable-background="new 0 0 2048 2048" xml:space="preserve">
<g id="Hex">
	<g>
		<polygon fill="#2C3E50" points="1882,1519.921 1023.999,2015.639 166,1519.921 166,528.487 1023.999,32.77 1882,528.487 		"/>
	</g>
	<polygon fill="none" stroke="#18BC9C" stroke-width="25" stroke-miterlimit="10" points="224.5,562.333 1024,100.666 
		1823.5,562.333 1823.5,1485.667 1024,1947.334 224.5,1485.667 	"/>
</g>
<g id="Glyph">
	<g>
		<g id="Layer_1_110_">
			<g>
				<path fill="#F39C12" d="M1135.396,896.302l53.662,50.729c-6.25,11.357-10.119,24.209-10.119,38.088
					c0,43.965,35.623,79.586,79.605,79.586c43.984,0,79.66-35.604,79.66-79.586s-35.676-79.624-79.66-79.624
					c-15.512,0-29.867,4.62-42.096,12.284l-53.588-50.674C1154.738,877.83,1145.59,887.647,1135.396,896.302z"/>
				<path fill="#95A5A6" d="M908.35,902.645l-71.318,120.022c-7.022-2.006-14.301-3.457-21.944-3.457
					c-44.059,0-79.68,35.632-79.68,79.626c0,43.963,35.621,79.576,79.68,79.576c43.981,0,79.586-35.594,79.586-79.576
					c0-21.836-8.801-41.574-23.047-55.965l71.1-119.684C930.497,917.651,918.983,910.739,908.35,902.645z"/>
				<path fill="#18BC9C" d="M662.384,802.166c34.248,0,63.25-21.753,74.488-52.096l99.095,9.782c0-0.753-0.108-1.467-0.108-2.201
					c0-12.906,1.431-25.539,3.995-37.713l-99.057-9.789c-5.994-37.989-38.702-67.121-78.413-67.121
					c-43.965,0-79.568,35.585-79.568,79.551C582.815,766.535,618.419,802.166,662.384,802.166z"/>
				<path fill="#3498DB" d="M935.815,489.172l22.146,96.802c12.504-4.364,25.52-7.48,39.088-9.039l-22.186-96.804
					c25.447-13.311,42.994-39.619,42.994-70.326c0-43.965-35.587-79.552-79.659-79.552c-43.968,0-79.571,35.587-79.571,79.552
					C858.593,452.962,892.986,487.906,935.815,489.172z"/>
				<path fill="#E74C3C" d="M1195.641,719.224l123.352-41.323c14.227,21.742,38.723,36.172,66.607,36.172
					c43.982,0,79.586-35.622,79.586-79.587c0-44.021-35.604-79.644-79.586-79.644c-43.945,0-79.625,35.623-79.625,79.644
					c0,1.834,0.387,3.521,0.531,5.334l-123.736,41.435C1188.346,693.281,1192.781,705.951,1195.641,719.224z"/>
				<path fill="#FFFFFF" d="M1017.804,894.165c-75.39,0-136.514-61.125-136.514-136.514s61.124-136.495,136.514-136.495
					c75.388,0,136.515,61.106,136.515,136.495S1093.191,894.165,1017.804,894.165z"/>
			</g>
		</g>
	</g>
</g>
<g id="Text">
	<text transform="matrix(1 0 0 1 365.2603 1507.916)" fill="#FFFFFF" font-family="'Lato-Regular'" font-size="296.6665">StrainHub</text>
</g>
</svg>
