<svg xmlns="http://www.w3.org/2000/svg" viewBox="0 0 1716.89 1982.87"><defs><style>.cls-1{fill:#2c3e50;}.cls-2,.cls-3{fill:none;}.cls-2{stroke:#18bc9c;stroke-width:25px;}.cls-2,.cls-3,.cls-4{stroke-miterlimit:10;}.cls-3,.cls-4{stroke:#fff;stroke-width:27px;}.cls-4,.cls-5{fill:#fff;}</style></defs><title>strainhub_hex_color</title><g id="Hex"><polygon class="cls-1" points="1716.89 1487.15 858.44 1982.87 0 1487.15 0 495.72 858.44 0 1716.89 495.72 1716.89 1487.15"/><polygon class="cls-2" points="58.94 529.56 858.44 67.9 1657.94 529.56 1657.94 1452.9 858.44 1914.57 58.94 1452.9 58.94 529.56"/></g><g id="Glyph"><circle class="cls-3" cx="757.67" cy="806.45" r="240.77"/><line class="cls-4" x1="756.47" y1="727.93" x2="756.94" y2="1332.23"/><line class="cls-4" x1="756.47" y1="893.78" x2="828.57" y2="828.88"/><line class="cls-4" x1="755.67" y1="806.45" x2="698.78" y2="760.38"/></g><g id="Text"><path class="cls-5" d="M508.4,1182.58a11,11,0,0,1-2.9,3.34,6.31,6.31,0,0,1-3.78,1.11q-2.52,0-5.93-2.52t-8.53-5.56a69.16,69.16,0,0,0-12.31-5.57,53.31,53.31,0,0,0-17.43-2.52,50.93,50.93,0,0,0-17,2.6,36.48,36.48,0,0,0-12.31,7,29,29,0,0,0-7.49,10.46,33.23,33.23,0,0,0-2.52,13q0,8.91,4.38,14.76a37.4,37.4,0,0,0,11.57,10,88.55,88.55,0,0,0,16.31,7.2q9.12,3,18.69,6.3t18.69,7.34a66.27,66.27,0,0,1,16.32,10.31,47.22,47.22,0,0,1,11.57,15.28q4.37,9,4.38,22.25a71.84,71.84,0,0,1-4.75,26.18,60.44,60.44,0,0,1-13.87,21.29,64.89,64.89,0,0,1-22.4,14.24q-13.28,5.19-30.18,5.19-20.78,0-37.68-7.49a88.33,88.33,0,0,1-28.93-20.25l8.31-13.65a10.93,10.93,0,0,1,2.89-2.74,6.8,6.8,0,0,1,3.78-1.11,8.39,8.39,0,0,1,4.38,1.56c1.63,1,3.49,2.35,5.56,3.93s4.45,3.31,7.12,5.19a58.27,58.27,0,0,0,9.13,5.19,62,62,0,0,0,11.64,3.93,63.36,63.36,0,0,0,14.69,1.56,54.75,54.75,0,0,0,18.24-2.82,38.65,38.65,0,0,0,13.57-7.94,34.41,34.41,0,0,0,8.53-12.23,40.89,40.89,0,0,0,3-15.88q0-9.63-4.38-15.79a36.3,36.3,0,0,0-11.49-10.31,80,80,0,0,0-16.32-7q-9.19-2.9-18.69-5.93a198.82,198.82,0,0,1-18.69-7A60.51,60.51,0,0,1,407.23,1245a47.67,47.67,0,0,1-11.49-16q-4.38-9.55-4.38-23.66a56.4,56.4,0,0,1,17.13-40.49,62.26,62.26,0,0,1,20.62-13q12.24-4.91,28.11-4.9a89.31,89.31,0,0,1,32.41,5.64,76.5,76.5,0,0,1,25.74,16.32Z" transform="translate(-165.56 -32.77)"/><path class="cls-5" d="M593.84,1364.29q-17.8,0-27.37-9.94t-9.57-28.63v-92H538.81a5.91,5.91,0,0,1-4-1.41,5.48,5.48,0,0,1-1.63-4.38v-10.53l24.62-3.12,6.09-46.42a6.41,6.41,0,0,1,2-3.64,5.83,5.83,0,0,1,4.08-1.41h13.35v51.77h43.46v19.14H583.31v90.18q0,9.49,4.59,14.1a16.1,16.1,0,0,0,11.87,4.59,21,21,0,0,0,7.2-1.11,30.81,30.81,0,0,0,5.26-2.45c1.48-.89,2.75-1.7,3.78-2.44a4.93,4.93,0,0,1,2.75-1.12c1.38,0,2.62.85,3.71,2.53l7.71,12.6a49.21,49.21,0,0,1-16.47,10A55.91,55.91,0,0,1,593.84,1364.29Z" transform="translate(-165.56 -32.77)"/><path class="cls-5" d="M679.13,1241.77q7.11-15.43,17.5-24.11T722,1209a39.55,39.55,0,0,1,9.13,1,24.49,24.49,0,0,1,7.78,3.27L737,1233q-.9,3.7-4.45,3.7a30.14,30.14,0,0,1-6.09-.89,42,42,0,0,0-9-.89,36.23,36.23,0,0,0-12.69,2.08,29.72,29.72,0,0,0-9.93,6.16,43.69,43.69,0,0,0-7.87,10.08,87.2,87.2,0,0,0-6.3,13.72v94.94H654.06V1211.65h15.13c2.87,0,4.84.55,5.93,1.64s1.83,3,2.23,5.63Z" transform="translate(-165.56 -32.77)"/><path class="cls-5" d="M755.82,1232.87a85.81,85.81,0,0,1,26.84-17.95,82.85,82.85,0,0,1,31.9-5.94,56.84,56.84,0,0,1,22.39,4.16,45.87,45.87,0,0,1,16.47,11.57,49.07,49.07,0,0,1,10.09,18,74.86,74.86,0,0,1,3.41,23.14v96.12H855.2a11.49,11.49,0,0,1-5.93-1.26q-2.09-1.26-3.27-5l-3-14.24a149.49,149.49,0,0,1-11.57,9.71,66.44,66.44,0,0,1-11.87,7.12,64.37,64.37,0,0,1-13.28,4.45,72.46,72.46,0,0,1-15.65,1.56,54.16,54.16,0,0,1-16.46-2.45,38.13,38.13,0,0,1-13.43-7.34,34.48,34.48,0,0,1-9-12.39,43.17,43.17,0,0,1-3.34-17.72,33.06,33.06,0,0,1,4.89-17.13q4.9-8.23,15.88-14.62t28.62-10.45q17.65-4.08,43.32-4.68V1265.8q0-17.5-7.57-26.48t-22.1-9a47.53,47.53,0,0,0-16.39,2.45,61.08,61.08,0,0,0-11.42,5.49q-4.83,3-8.31,5.49a12,12,0,0,1-6.9,2.45,7.54,7.54,0,0,1-4.59-1.41,12.83,12.83,0,0,1-3.27-3.49Zm85.29,61.41a219.61,219.61,0,0,0-31.08,2.89q-12.82,2.3-20.91,6t-11.72,8.75a18.78,18.78,0,0,0-3.64,11.27,25,25,0,0,0,1.93,10.24,19,19,0,0,0,5.27,7,21.06,21.06,0,0,0,7.86,4,36,36,0,0,0,9.72,1.26,53.82,53.82,0,0,0,12.75-1.41,48,48,0,0,0,10.9-4.08,60.37,60.37,0,0,0,9.79-6.38,84.88,84.88,0,0,0,9.13-8.45Z" transform="translate(-165.56 -32.77)"/><path class="cls-5" d="M1003.23,1233.46a89,89,0,0,1,10.38-9.94,68.34,68.34,0,0,1,11.65-7.64,59.42,59.42,0,0,1,13-4.89,61.87,61.87,0,0,1,14.91-1.71,54.24,54.24,0,0,1,21.73,4.08,42.05,42.05,0,0,1,15.72,11.57,51.11,51.11,0,0,1,9.57,18,78.36,78.36,0,0,1,3.26,23.29v95.68H1077v-95.68q0-17.06-7.78-26.48t-23.66-9.42a44.33,44.33,0,0,0-21.88,5.64,72.06,72.06,0,0,0-18.77,15.28v110.66H978.31V1211.65h15.87c3.76,0,6.08,1.84,7,5.49Z" transform="translate(-165.56 -32.77)"/><path class="cls-5" d="M1319.48,1149.36v212.56H1290.7V1265.2H1176v96.72h-28.78V1149.36H1176v94.78H1290.7v-94.78Z" transform="translate(-165.56 -32.77)"/><path class="cls-5" d="M1488.43,1211.65v150.27h-15.72q-5.64,0-7.12-5.49l-2.08-16.17a82.49,82.49,0,0,1-22,17.43q-12.16,6.6-27.89,6.6a54.24,54.24,0,0,1-21.73-4.08,43,43,0,0,1-15.8-11.5,48.69,48.69,0,0,1-9.56-17.94,80,80,0,0,1-3.19-23.29v-95.83h26.4v95.83q0,17.05,7.79,26.4t23.8,9.35a44.81,44.81,0,0,0,21.88-5.57,69.26,69.26,0,0,0,18.77-15.35V1211.65Z" transform="translate(-165.56 -32.77)"/><path class="cls-5" d="M1556.81,1233.31a77.24,77.24,0,0,1,21.44-17.5q11.94-6.52,27.51-6.53a54.79,54.79,0,0,1,23.81,5,49.47,49.47,0,0,1,18,14.62,68.09,68.09,0,0,1,11.35,23.21,110.93,110.93,0,0,1,3.93,30.71,116.29,116.29,0,0,1-4.45,33.22,75.4,75.4,0,0,1-12.83,25.59,58.2,58.2,0,0,1-20.4,16.46,60.73,60.73,0,0,1-27,5.86q-14.84,0-25-5.56a54.61,54.61,0,0,1-17.72-15.8l-1.34,13.65q-1.19,5.64-6.82,5.64h-17.06v-218.5h26.55Zm0,92.41q7.28,9.79,16,13.8a44.92,44.92,0,0,0,19.06,4q21.21,0,32.48-15t11.28-44.65q0-27.59-10-40.57t-28.55-13q-12.9,0-22.47,5.94a66.07,66.07,0,0,0-17.73,16.76Z" transform="translate(-165.56 -32.77)"/></g></svg>